<svg width="44" height="43" viewBox="0 0 44 43" fill="none" xmlns="http://www.w3.org/2000/svg">
<path d="M5.96094 19.6436C4.19401 19.6436 2.8763 19.2093 2.00781 18.3408C1.1543 17.4723 0.727539 16.1322 0.727539 14.3203V5.42578C0.727539 3.62891 1.1543 2.30371 2.00781 1.4502C2.8763 0.581706 4.19401 0.147461 5.96094 0.147461H15.0127C16.7646 0.147461 18.0674 0.581706 18.9209 1.4502C19.7894 2.30371 20.2236 3.62891 20.2236 5.42578V14.3203C20.2236 16.1322 19.7894 17.4723 18.9209 18.3408C18.0674 19.2093 16.7646 19.6436 15.0127 19.6436H5.96094ZM5.78125 15.8027H15.1699C15.5742 15.8027 15.8812 15.6979 16.0908 15.4883C16.3005 15.2786 16.4053 14.9642 16.4053 14.5449V5.22363C16.4053 4.80436 16.3005 4.48991 16.0908 4.28027C15.8812 4.07064 15.5742 3.96582 15.1699 3.96582H5.78125C5.36198 3.96582 5.05501 4.07064 4.86035 4.28027C4.66569 4.48991 4.56836 4.80436 4.56836 5.22363V14.5449C4.56836 14.9642 4.66569 15.2786 4.86035 15.4883C5.05501 15.6979 5.36198 15.8027 5.78125 15.8027ZM8.40918 12.4336C8.07975 12.4336 7.91504 12.2464 7.91504 11.8721V7.87402C7.91504 7.51465 8.07975 7.33496 8.40918 7.33496H12.542C12.8564 7.33496 13.0137 7.51465 13.0137 7.87402V11.8721C13.0137 12.2464 12.8564 12.4336 12.542 12.4336H8.40918ZM28.8262 19.6436C27.0592 19.6436 25.7415 19.2093 24.873 18.3408C24.0195 17.4723 23.5928 16.1322 23.5928 14.3203V5.42578C23.5928 3.62891 24.0195 2.30371 24.873 1.4502C25.7415 0.581706 27.0592 0.147461 28.8262 0.147461H37.8555C39.6224 0.147461 40.9326 0.581706 41.7861 1.4502C42.6546 2.30371 43.0889 3.62891 43.0889 5.42578V14.3203C43.0889 16.1322 42.6546 17.4723 41.7861 18.3408C40.9326 19.2093 39.6224 19.6436 37.8555 19.6436H28.8262ZM28.6465 15.8027H38.0352C38.4544 15.8027 38.7614 15.6979 38.9561 15.4883C39.1507 15.2786 39.248 14.9642 39.248 14.5449V5.22363C39.248 4.80436 39.1507 4.48991 38.9561 4.28027C38.7614 4.07064 38.4544 3.96582 38.0352 3.96582H28.6465C28.2272 3.96582 27.9128 4.07064 27.7031 4.28027C27.5085 4.48991 27.4111 4.80436 27.4111 5.22363V14.5449C27.4111 14.9642 27.5085 15.2786 27.7031 15.4883C27.9128 15.6979 28.2272 15.8027 28.6465 15.8027ZM31.3643 12.4336C31.0498 12.4336 30.8926 12.2464 30.8926 11.8721V7.87402C30.8926 7.51465 31.0498 7.33496 31.3643 7.33496H35.4746C35.819 7.33496 35.9912 7.51465 35.9912 7.87402V11.8721C35.9912 12.2464 35.819 12.4336 35.4746 12.4336H31.3643ZM5.96094 42.4863C4.19401 42.4863 2.8763 42.0521 2.00781 41.1836C1.1543 40.3301 0.727539 38.9974 0.727539 37.1855V28.291C0.727539 26.4941 1.1543 25.1615 2.00781 24.293C2.8763 23.4245 4.19401 22.9902 5.96094 22.9902H15.0127C16.7646 22.9902 18.0674 23.4245 18.9209 24.293C19.7894 25.1615 20.2236 26.4941 20.2236 28.291V37.1855C20.2236 38.9974 19.7894 40.3301 18.9209 41.1836C18.0674 42.0521 16.7646 42.4863 15.0127 42.4863H5.96094ZM5.78125 38.668H15.1699C15.5742 38.668 15.8812 38.5632 16.0908 38.3535C16.3005 38.1439 16.4053 37.8294 16.4053 37.4102V28.0889C16.4053 27.6546 16.3005 27.3402 16.0908 27.1455C15.8812 26.9359 15.5742 26.8311 15.1699 26.8311H5.78125C5.36198 26.8311 5.05501 26.9359 4.86035 27.1455C4.66569 27.3402 4.56836 27.6546 4.56836 28.0889V37.4102C4.56836 37.8294 4.66569 38.1439 4.86035 38.3535C5.05501 38.5632 5.36198 38.668 5.78125 38.668ZM8.40918 35.2988C8.07975 35.2988 7.91504 35.1042 7.91504 34.7148V30.7393C7.91504 30.3799 8.07975 30.2002 8.40918 30.2002H12.542C12.8564 30.2002 13.0137 30.3799 13.0137 30.7393V34.7148C13.0137 35.1042 12.8564 35.2988 12.542 35.2988H8.40918ZM25.1875 29.1221C24.873 29.1221 24.7158 28.9349 24.7158 28.5605V24.5625C24.7158 24.2031 24.873 24.0234 25.1875 24.0234H29.3203C29.6497 24.0234 29.8145 24.2031 29.8145 24.5625V28.5605C29.8145 28.9349 29.6497 29.1221 29.3203 29.1221H25.1875ZM37.2939 29.1221C36.9795 29.1221 36.8223 28.9349 36.8223 28.5605V24.5625C36.8223 24.2031 36.9795 24.0234 37.2939 24.0234H41.4268C41.7562 24.0234 41.9209 24.2031 41.9209 24.5625V28.5605C41.9209 28.9349 41.7562 29.1221 41.4268 29.1221H37.2939ZM31.2969 35.1641C30.9824 35.1641 30.8252 34.9769 30.8252 34.6025V30.6045C30.8252 30.2451 30.9824 30.0654 31.2969 30.0654H35.4297C35.7591 30.0654 35.9238 30.2451 35.9238 30.6045V34.6025C35.9238 34.9769 35.7591 35.1641 35.4297 35.1641H31.2969ZM25.1875 41.2061C24.873 41.2061 24.7158 41.0189 24.7158 40.6445V36.6465C24.7158 36.2871 24.873 36.1074 25.1875 36.1074H29.3203C29.6497 36.1074 29.8145 36.2871 29.8145 36.6465V40.6445C29.8145 41.0189 29.6497 41.2061 29.3203 41.2061H25.1875ZM37.2939 41.2061C36.9795 41.2061 36.8223 41.0189 36.8223 40.6445V36.6465C36.8223 36.2871 36.9795 36.1074 37.2939 36.1074H41.4268C41.7562 36.1074 41.9209 36.2871 41.9209 36.6465V40.6445C41.9209 41.0189 41.7562 41.2061 41.4268 41.2061H37.2939Z" fill="black"/>
</svg>
